<svg xmlns="http://www.w3.org/2000/svg" viewBox="0 0 120 80" width="120" height="80" version="1.1">
  <path style="stroke-width: 5; fill: green; stroke: darkgreen;" d="M 42.608 36.958 C 42.608 36.958 30.85444387762932 37.69490971475478 26.023 36.958 C 22.115497387468732 36.36201322906044 17.680117583612784 35.512581484122244 15.668 33.724 C 14.278981874304792 32.48929477155708 13.615116028305298 30.610272721588778 13.559 29.004 C 13.502152975608285 27.37680314837818 14.27903256500414 25.673391136492754 15.38 24.021 C 16.885429343640592 21.761570679043594 20.603250103003745 19.778683639281144 22.667 17.291 C 24.674669013383912 14.87091733157386 25.92920830558392 11.377164042653712 27.653 9.337 C 28.959187641588837 7.791084059019154 30.147400545704485 6.366380655345597 31.678 5.752 C 33.136187627264626 5.16668535903273 34.929515075274736 4.96952751715325 36.567 5.577 C 38.8211838943774 6.4132548359584725 41.47823382122742 9.27627498245403 43.374 11.871 C 45.510276714549924 14.794910499992394 47.15284943993867 18.94848561044989 48.361 22.535 C 49.500041815531105 25.916358248506935 50.314699007000726 32.80129462751126 50.567 32.764 C 50.884560101528656 32.71705890175794 48.62924381861255 21.072055463525974 49.224 16.241 C 49.710074105465615 12.292741812232805 50.72377935675039 8.066168122091698 52.771 5.752 C 54.473905878448086 3.8270435905278 57.420128621171166 2.4106007441390704 59.675 2.431 C 61.85961163949165 2.450763633619716 64.20468257430687 4.4377555538263875 66.098 5.665 C 67.80020342853632 6.7683647478124875 68.73422673421251 8.308869354311938 70.604 9.337 C 72.98163873000712 10.644390199348921 77.48452101983068 10.928545260130914 79.521 12.309 C 80.92359530529521 13.259768142547646 82.00725875960174 14.179624777408272 82.397 15.716 C 82.96478440847483 17.95422835905998 82.0568160461072 22.38299682136256 80.478 24.982 C 78.82402577082276 27.704726494714183 75.44717490882174 29.66143181395861 72.424 31.538 C 69.17282563213145 33.55609374912855 61.390347431425866 36.23234356158248 61.496 36.521 C 61.601393227221244 36.8089478844062 69.21601235594555 33.71432080054594 73.002 33.288 C 76.56025445556546 32.88732307480583 80.62259772110883 32.92059698890024 83.546 33.812 C 85.91639474438347 34.53478010723856 88.52423681055602 35.71476468329078 89.491 37.394 C 90.37906877154474 38.936545745563755 90.25882723726382 41.271745994221966 89.586 43.25 C 88.69963386488087 45.85610341001686 85.26024793088068 48.558789596163194 83.259 51.205 C 81.33805520144664 53.74502716639466 79.67343331118049 57.08818268012096 77.794 58.81 C 76.44924082107435 60.04198287035048 75.23615061806946 60.777739547854004 73.671 61.257 C 71.9269356656684 61.79104512753822 69.81814933201925 62.14151075727234 67.728 61.606 C 64.94866292619662 60.89391456270272 60.894552494309515 58.0505336382572 58.811 56.012 C 57.27043368471295 54.50472035897547 56.295768937601565 52.638118018903555 55.647 51.205 C 55.186489548178386 50.18774133031274 54.949949663397234 48.393739805262335 54.879 48.409 C 54.73607664380554 48.4397406426423 55.538477143300206 56.45439614903914 56.703 60.033 C 57.80358114845392 63.41510960265201 59.94987829391739 66.7256319331818 61.496 69.386 C 62.709766483287844 71.47449379709872 65.16878490174183 73.64599738384254 65.042 74.806 C 64.97376469125432 75.4303104310675 64.4367540207316 75.89604782994037 63.7 76.117 C 62.027611779913336 76.61854840830513 56.499937280394796 76.34756765732735 54.209 74.282 C 51.30545505212574 71.66408959832727 49.98160646999962 63.66188064708841 49.704 59.422 C 49.501773659309194 56.33339926159617 51.402978539984645 51.44575460805092 51.046 51.292 C 50.89739052588408 51.227992254754774 50.460184302839274 51.88861587731251 50.182 52.429 C 49.669329157635666 53.42488359426075 49.60738618794314 55.47251878277633 48.744 57.061 C 47.59874668161661 59.168067973312205 45.086979349776556 62.324273745185465 43.281 63.617 C 42.059798547894594 64.49114021635941 40.93773639923265 65.00409638275488 39.638 65.015 C 38.151682713300914 65.02746886276981 36.283297148688135 64.24233668927215 34.844 63.267 C 33.24074770328212 62.18055944908662 32.46075045269108 59.93738373826598 30.625 58.546 C 28.325887484879736 56.80341687205214 23.845265524574362 55.78195063906601 21.707 54.176 C 20.213726953735446 53.05447286719643 18.789741535417463 51.92056735658572 18.448 50.593 C 18.132322947514115 49.366685646400825 18.67072584870277 47.888108602230105 19.407 46.573 C 20.377365907147546 44.839764425245455 22.56039890569353 42.870808537278705 24.489 41.503 C 26.425746410636613 40.12941461584088 28.452406585646067 39.10545919705455 31.009 38.357 C 34.256814747411944 37.40618130337743 42.608 36.958 42.608 36.958 C 42.608 36.958 42.608 36.958 42.608 36.958 C 42.608 36.958 42.608 36.958000000000006 42.608 36.958" data-bx-d="M 42.608 36.958 R 26.023 36.958 R 15.668 33.724 R 13.559 29.004 R 15.38 24.021 R 22.667 17.291 R 27.653 9.337 R 31.678 5.752 R 36.567 5.577 R 43.374 11.871 R 48.361 22.535 R 50.567 32.764 R 49.224 16.241 R 52.771 5.752 R 59.675 2.431 R 66.098 5.665 R 70.604 9.337 R 79.521 12.309 R 82.397 15.716 R 80.478 24.982 R 72.424 31.538 R 61.496 36.521 R 73.002 33.288 R 83.546 33.812 R 89.491 37.394 R 89.586 43.25 R 83.259 51.205 R 77.794 58.81 R 73.671 61.257 R 67.728 61.606 R 58.811 56.012 R 55.647 51.205 R 54.879 48.409 R 56.703 60.033 R 61.496 69.386 R 65.042 74.806 R 63.7 76.117 R 54.209 74.282 R 49.704 59.422 R 51.046 51.292 R 50.182 52.429 R 48.744 57.061 R 43.281 63.617 R 39.638 65.015 R 34.844 63.267 R 30.625 58.546 R 21.707 54.176 R 18.448 50.593 R 19.407 46.573 R 24.489 41.503 R 31.009 38.357 R 42.608 36.958 R 42.608 36.958 Z 1@e9e90fef"></path>
</svg>
